<svg id="Layer_1" data-name="Layer 1" xmlns="http://www.w3.org/2000/svg" xmlns:xlink="http://www.w3.org/1999/xlink"
     viewBox="0 0 786.5 781.7">
    <defs>
        <style>.cls-1{stroke:#000;stroke-miterlimit:10;}</style>
    </defs>
    <title>Skully-Bandana-inside-pattern-2</title>
    <path class="cls-1"
          d="M585.48,176.89c-52.34,3.09-82.55,5.7-85.31,7.41a10.15,10.15,0,0,1-3.26.81c-3.83.41-23.28,6.51-30.69,9.69-3.83,1.55-7.08,2.93-7.33,2.93-2.93.33-21.65,9.44-29.55,14.41-16.85,10.5-27.27,17.75-36.71,25.32-8.87,7.25-32.24,33-32.24,35.74a1.35,1.35,0,0,1-.65,1.06c-1.47.57-9.28,15-11.56,21.41-.33.9-1.06,2.69-1.63,4.07a23,23,0,0,0-1.38,4c-.16.81-1.14,5-2.28,9.36s-2.52,11.56-3.26,16c-1.22,7.9-5.62,25.4-7,28.25-1.3,2.44-10.42,31.83-12.46,40.13a112.3,112.3,0,0,0-2.44,12.21,25.65,25.65,0,0,1-.49,4.07c-.33,0-.81,7.33-1.3,22.06-.57,17.42.16,27.19,3,40.62a86.11,86.11,0,0,1,1.55,17.91c0,5.78.41,12.05.9,13.84s1.14,12.78,1.55,24.42c.65,22.31,1.38,26.86,5.62,36.55,2.12,4.88,9.44,12.21,15,15.14,2.93,1.47,3.42,2.44,4.56,9.36,1.3,7.41,5.29,23.28,7.49,29.39a71.76,71.76,0,0,1,2.36,8.87c1,5.62,2.69,11.32,3.58,12,1.3.9,1.38,8.14.08,12.13a17.85,17.85,0,0,1-9.52,10.09c-1.71.65-3.09,1.71-3.09,2.2s-1.3,3.17-2.93,5.78c-2.2,3.5-2.77,5.29-2.36,6.84a71.8,71.8,0,0,1,.81,8.3,34.65,34.65,0,0,0,1.47,9c1.14,2.52,1.06,3.09-.08,5.29-1.87,3.26-1.63,25.32.24,28.9,1.06,2,1.06,2.69,0,5.7-1.87,5.29-1.63,21.41.33,25.72,1.3,2.85,1.38,3.66.49,5.78-1.71,4.07-1.38,17.5.49,21.41A17.06,17.06,0,0,1,349,797a6,6,0,0,0,1.22,3.83c1.71,1.47,1.55,2.36-.73,2.93-2,.49-2.6,1.3-5.45,8.47a81.55,81.55,0,0,1-3.66,7.41c-2.36,3.83-6.84,14.41-6.84,16.12a3.37,3.37,0,0,1-.57,2,2.12,2.12,0,0,0-.73,1.38c-.08.41-.16.81-.33.9s-.24.81-.41,1.47-1.06,4-1.95,7.41a90.16,90.16,0,0,0-2.2,36.63c.9,6.43,4.48,17.75,7.16,22.55,1.38,2.6,2.93,5.37,3.42,6.27,3.26,6.11,7.57,11.15,11.89,14.16a48.45,48.45,0,0,0,5.45,3.34c1,0,11.32,7.81,16.69,12.62,7.73,7,19.29,12.54,26.7,12.86,7,.24,11.4-3.26,11.4-9.2,0-1.3-1.3-6.35-2.85-11.15s-2.85-9.12-2.85-9.61,4.48-.81,13.68-.81c11.32,0,13.92-.24,15.55-1.38l1.87-1.3-3.5-2.6a84.05,84.05,0,0,0-9.69-5.7c-11.8-5.94-19-14.49-21.65-25.64-.57-2.52-.49-21.41.08-22.47s.65-12.46.08-29.63c-.41-9.77-.81-12.46-2.93-19.05-1.3-4.23-2.44-8.06-2.44-8.63a17.12,17.12,0,0,0-1.71-4.07,20.31,20.31,0,0,1-2-7.73c-.57-13.59-.33-38.83.33-45.18a92.17,92.17,0,0,0,.49-13c-.24-3.17-.57-12-.81-19.54-.24-8.95-.81-15.22-1.63-17.83a29.51,29.51,0,0,1-1.22-5.78c0-1.3-1.22-2.52-4.15-4.31-3.34-2.12-4.48-3.42-6.11-7.25-1.14-2.6-2.36-5.29-2.77-5.94-5.37-8.71-5.29-8.38-5.62-15.47a165.74,165.74,0,0,1,1.14-19c1.3-10.75,1.3-12.13.24-13.43-1.38-1.55-9-28.17-10.83-37.69-.57-3.34-1.71-9.12-2.36-12.94-.9-4.56-1.3-11.56-1.3-20.35.08-16.12,1.71-23.53,7.25-32a47.3,47.3,0,0,0,3.34-5.7c0-1.38,8.3-12.7,10.34-14,1.22-.81,4.64-3.58,7.65-6.19a46.69,46.69,0,0,1,21.9-11.4c3.91-.9,7.65-2.36,8.63-3.26a13.82,13.82,0,0,1,5.7-2.28,56.17,56.17,0,0,0,10.34-3.66c3.5-1.63,7.49-2.93,8.87-2.93,3.17,0,12.29-2.36,12.94-3.34.24-.41,2.28-.9,4.48-1.06a46.27,46.27,0,0,0,7.25-1.14c2.77-.73,15.47-2.36,24.42-3,1.38-.16,5.54-.81,9.36-1.47,10.58-1.95,35.66-3,67.16-2.85,15.71,0,31.34,0,34.76-.08a65.9,65.9,0,0,1,13.76,1.55c6.35,1.38,9.2,1.55,17.83,1.14,7.73-.41,12.13-.24,17.91.73,8.3,1.47,16.36,2.6,26.05,3.83a82,82,0,0,1,10.18,1.95c8.87,2.44,15.06,3.74,18.48,3.74a30.74,30.74,0,0,1,7.33,1.22,63.65,63.65,0,0,0,8.95,1.71,49.22,49.22,0,0,1,11.64,3.17,141.87,141.87,0,0,0,17.66,5.21c10,2.28,11.72,2.93,17.1,6.51a107.89,107.89,0,0,0,10.18,6.11,23,23,0,0,1,5.13,3.34,3.48,3.48,0,0,0,1.79,1.22,7.92,7.92,0,0,1,2.93,2.12,72.6,72.6,0,0,0,7.9,5.62c5.45,3.5,16.85,14.82,20.43,20.35,3.34,5.29,12.7,16.2,14.82,17.26,2.77,1.47,3.17,2.12,3.83,6.68,1.22,8.47,5.78,21.9,9.93,29.22,3,5.29,3.09,5.7,3,13.19,0,7.33-.24,8.06-3.09,13.84-2.77,5.37-3.09,6.51-2.69,10.26a17.24,17.24,0,0,0,1.87,6.43c2.36,3.58,11.56,6.76,12.94,4.48.24-.41,2.44-.81,4.72-.81,5.78,0,9.69,2.6,11.64,7.9a26.59,26.59,0,0,0,2.12,4.8c.73,1,1.55,4.64,3.58,16.2a71.4,71.4,0,0,0,2.36,9.77c1.3,2.93,4.72,21.25,6.51,35.41.73,5.62,1.79,12.21,2.44,14.65s1.38,6.27,1.71,8.55c.57,4.23,8,21.41,10.83,25.4a35.28,35.28,0,0,1,3.34,7.16c2.6,7.25,4.23,11.07,6.19,14.25a28.36,28.36,0,0,1,2.36,4.88,18.61,18.61,0,0,0,2.36,4.48,21.64,21.64,0,0,1,4,8.14,11.5,11.5,0,0,0,2,4.23,9.82,9.82,0,0,1,1.79,3.5c0,1.95,5.21,8.3,14.82,18.07,7.81,7.9,11.15,10.66,15.3,12.7,5.45,2.69,10,5.21,22,12,7.49,4.23,18.72,9.36,20.51,9.36a39,39,0,0,1,6.84,2.85c18.64,9.2,54.62,2.93,83.36-14.49,2.93-1.79,5.45-3.5,5.54-3.91a1.61,1.61,0,0,1,1.47-.73c.66,0,1.14-.41,1.14-.81a.84.84,0,0,1,.9-.81c1.22,0,3.91-3.34,4-5,0-1.06-2.12-1.22-18.72-.9-20.19.41-21.25.16-16.53-3.58,1.38-1.06,2-2.12,1.63-3-.57-1.47-1.22-1.63-11-2.93-14.82-1.87-32.16-9.77-42.49-19.29-4.4-4.15-13.84-15.63-13.84-16.85s2.85-.41,5.45,1.55c3.34,2.52,16.2,9,25.89,12.86,4.07,1.63,8,3.34,8.71,3.74a5.92,5.92,0,0,0,2.6.81,10.91,10.91,0,0,1,3.42,1.22c3.17,1.63,6,1.55,6-.16,0-.73-2-3.17-4.4-5.45s-6.51-6.19-9.12-8.63-6.35-6.35-8.3-8.55-4.4-5-5.45-6.27a11.14,11.14,0,0,1-2-2.6,15.75,15.75,0,0,0-2.52-3.09c-5.29-5.78-24.83-36.71-26.38-42-.73-2.36.81-2.36,6.27.16s13.43,4.8,15,4.23c2.2-.81,1.22-4.07-2.2-7.41a83.59,83.59,0,0,1-6.76-7.73c-1.87-2.44-3.58-4.64-3.91-4.72s-.65-.81-.65-1.47-.33-1.14-.73-1.14-1.14-1-1.63-2.28-1.71-3.66-2.69-5.45c-4.88-9.36-12.94-35.25-13-42.17,0-1.63-.33-3.17-.65-3.42s-.49-1.14-.24-1.95a1.86,1.86,0,0,0-.49-2c-.49-.33-.9-2-.9-3.83,0-4.31-5-26.05-8-35.33-2.2-6.68-5.21-13.35-10.34-23-2.93-5.7-12.86-18.15-20.11-25.24a105,105,0,0,0-28.74-19.78c-6.68-3.17-8.79-4.56-9.52-6.27-.49-1.3-2.28-5.37-4.07-9.12a61.85,61.85,0,0,1-4.4-14.08c-1.71-10-2.85-12.86-8.87-21.9-5.78-8.71-11.15-13.92-16.61-16.28L867.36,480l.57-7.49c.33-4.07.9-8.95,1.3-10.75s1.63-10.75,2.85-19.94c3.66-28.74,4.07-52.75,1.3-70.09-1.38-8.55-4.72-20.84-7-25.72a24.38,24.38,0,0,1-2-5.7,4.65,4.65,0,0,0-.81-2.12c-.49-.57-2.85-5.05-5.37-9.93s-5.7-11.15-7.33-13.84-3.26-5.86-3.83-7.16-1.22-2.2-1.55-2.2a.72.72,0,0,1-.65-.73c0-.81-12.21-18.8-14.33-21.25-.57-.65-3.17-3.83-5.7-6.92-4.8-5.94-29.39-30.53-30.53-30.53a4.86,4.86,0,0,1-2.12-1.47c-3-3.09-9.2-7.57-20.6-15.06-6.51-4.31-12.21-8.14-12.7-8.55a7.69,7.69,0,0,0-2.6-1.3,7.61,7.61,0,0,1-2.77-1.63c-1-.9-30.61-15.79-36.06-18a288.9,288.9,0,0,0-34.52-12.13c-5.7-1.38-10.75-2.85-11.32-3.26a1.61,1.61,0,0,0-1.71-.08,1,1,0,0,1-1.3-.41c-.24-.41-1.71-.81-3.09-.81a106.94,106.94,0,0,1-11.56-1.63C637.09,178.19,601.68,175.91,585.48,176.89ZM629.84,189c15,1.06,34.27,4.31,44,7.25,2,.65,6.59,1.95,10.18,2.93a108.72,108.72,0,0,1,13,4.07c.9.41,3.09,1.14,4.88,1.71a14.8,14.8,0,0,1,4.48,2c.65.57,5.78,3.09,11.4,5.62,13.27,6,27.6,13.19,34,16.93a44,44,0,0,0,5.54,3.09c.65,0,8,5.21,8.3,5.86a14.79,14.79,0,0,0,3.26,2.36c5.45,3.34,21.65,15.22,25.4,18.72,8.55,7.9,13.84,13.11,13.84,13.51s1.55,2.2,6.51,7.49c8.47,9.12,14.65,17.66,14.65,20.19,0,2.28-2.2,2.44-7.41.57-6.84-2.36-18.4-4.31-28.9-4.72-23.53-1-37-2-63-5a226.74,226.74,0,0,1-22.31-4.48c-4.23-1.06-6.76-1.38-7.33-.81s-.33.9.41,1.14,3.34,1.14,6,2c9.93,3.5,33.54,7.41,56.58,9.44,15.22,1.3,28.9,3.09,37.45,4.88,14.41,3,33.46,11.23,40.05,17.34,7.57,7,19.37,34.35,20.6,47.78.16,2.2.73,7.57,1.14,11.8s.9,10.75.9,14.41c0,8.22-.81,8.63-6.43,2.85-7.25-7.41-25.72-19.86-31-20.92a23.32,23.32,0,0,1-4.72-1.95c-4.48-2.28-9.69-4.15-12-4.15a3.46,3.46,0,0,1-2.44-.81c-.24-.49-1.38-.81-2.52-.81-3.74,0-1.87,2.69,3.74,5.45a49.38,49.38,0,0,0,5.86,2.69c1.47,0,13.76,6.35,18,9.28,11.32,7.73,26.78,23.36,29.14,29.47,1,2.69.33,22.79-1.06,30.85-.41,2.69-1.3,9.2-1.87,14.49s-1.22,9.85-1.47,10.09c-1.22,1.14-4.23-1.3-9.85-7.9-20.43-23.85-43.8-41.52-65.94-49.66a172,172,0,0,0-25.72-6.51c-6.11-.9-46.56-.81-61.05.16-3.83.33-12.46.73-19.29,1.06-9.2.49-12.46.9-12.78,1.71a1.29,1.29,0,0,0,.24,1.47c.33.24,11.8.65,25.4.9,26.13.49,41.35,1.38,55.11,3.34,9,1.22,24.26,4.72,28.25,6.43,1.38.57,5.7,2.36,9.69,4A124.71,124.71,0,0,1,802.83,438c6.92,4.4,26.62,21.41,28.25,24.42a71.68,71.68,0,0,0,6.35,8c7.16,8.06,19.7,24.75,21.9,29.06,1.71,3.34,2.44,10.75,1,10.75-.41,0-2.52-2.44-4.72-5.54-5.78-7.81-10.58-12.86-19.54-20.68-7-6.11-21.41-16.93-22.47-16.93a53.64,53.64,0,0,1-5.78-3.26,41.64,41.64,0,0,0-6-3.26,26.49,26.49,0,0,1-4.72-2.12C783.71,451.22,766.7,443.73,762,443a44.62,44.62,0,0,1-6.19-1.71c-3.5-1.3-4.64-1.47-4.64-.49,0,.41,1.55,1.22,3.34,1.79a13.74,13.74,0,0,1,4.31,2.12c.49.49,4.4,2.36,8.63,4.15,14.57,6.27,24.75,11.56,26.21,13.68.41.49.65.49.65,0s.33-.41.65.08,4.72,3.74,9.77,7.16c16.77,11.23,31.91,24.83,41.92,37.37,6.43,8.06,4.23,7.08-5.29-2.44s-25.15-21.82-31.75-25.15c-4.72-2.36-4.72-2.36-4.72,0,0,1.55,2,3.58,9.2,9.28,13.51,10.75,32.16,30.69,30.36,32.48-.24.24-4.4-3.34-9.12-8-12.13-11.89-12.37-12.13-18.23-16.61-2.93-2.2-5.45-4.23-5.7-4.48-.65-.65-16.44-11.07-18.4-12.05-1-.49-2-.65-2.28-.41s-.49.08-.49-.41-.73-1-1.63-1-1.63-.33-1.63-.81-.24-.73-.57-.65-2.44-.73-4.72-1.95-5.78-2.69-7.9-3.5-3.91-1.79-3.91-2.12-.9-.73-2-.73a12.79,12.79,0,0,1-4.56-1.22c-1.3-.73-2.77-1.06-3.17-.81s-.81.08-.81-.41-.33-.65-.81-.41-.81.08-.81-.41-.57-.81-1.22-.49-1.22.16-1.22-.16c0-2-61.05-16.69-63.33-15.3-.33.16-5.86-.41-12.37-1.22-20.84-2.69-60.24-4.23-66.35-2.6-3.26.9-3.26.9-.65,1,1.38,0,2.77.41,3,.81s6.92,1.14,14.9,1.63c28.57,2,63.17,7.16,85,12.7,2.52.65,6.11,1.38,8,1.63,7.9,1,45.34,14.65,46.32,16.93a.68.68,0,0,0,1.06.08.45.45,0,0,1,.73.41c0,.49.73.9,1.63.9s1.63.41,1.63.9.41.57.81.33.81-.08.81.33.57.9,1.22.9,1.22.33,1.22.65.49.73,1.06.73c1.55,0,12,5.29,12,6.11,0,.33.57.65,1.22.65s1.22.24,1.22.65.73,1,1.63,1.38a153.63,153.63,0,0,1,14.82,10.18c.81.65,2.44,1.95,3.66,2.85,2.44,1.79,18.56,17.75,20.84,20.6a7.3,7.3,0,0,1,1.38,2.52,1.35,1.35,0,0,0,.65,1.06c1,.33,7.49,10.18,7.49,11.15a.9.9,0,0,0,.81.9c.49,0,.81.49.81,1.14a3.92,3.92,0,0,0,1.06,2.28c3,3.26,4.8,8.87,3.09,10-1.06.65-3.34-1.87-3.34-3.74,0-.81-.24-1.55-.57-1.55s-1.71-2.12-3.09-4.72a34.17,34.17,0,0,0-2.93-5.05,21.2,21.2,0,0,1-1.79-3.26c-1.79-3.74-3.34-5.7-4.56-5.7-.49,0-.9-.73-.9-1.55a2.36,2.36,0,0,0-1.63-2.12c-.9-.24-1.63-.9-1.63-1.3a10.82,10.82,0,0,0-2.44-3.34,12.69,12.69,0,0,1-2.44-3.17c0-.41-.57-.73-1.22-.73s-1.22-.33-1.22-.73-.9-.9-2-1.06c-1.79-.41-2-.24-1.55,1.3.73,2.28,3.5,6.19,4.48,6.19.41,0,.73.49.73,1.14a1.83,1.83,0,0,0,.65,1.47c.73.33,5.86,7.81,5.86,8.63,0,.33-2-1.55-4.48-4.15a45.7,45.7,0,0,1-4.48-5.13c0-1.14-16.53-17.26-22.79-22.31-7.73-6.11-21.74-15.47-23.36-15.47-.57,0-1.06-.33-1.06-.73,0-1.87-25.81-11.15-38.67-13.92-4.48-1-8.71-2-9.36-2.2a21.64,21.64,0,0,0-3.5-.73,7,7,0,0,1-3.26-1c-.57-.41-3.17-1-5.78-1.3s-5.37-.9-5.94-1.38a2.6,2.6,0,0,0-2.28-.49,1.41,1.41,0,0,1-1.63-.16c-.49-.9-11-2.77-11.64-2.2-.24.24-.9.08-1.55-.41a3.34,3.34,0,0,0-2.69-.49c-.9.24-1.79.08-2-.33s-2-.65-3.91-.57a39,39,0,0,1-5.94-.49c-6-1.3-42.33-4.56-73.18-6.51-20.27-1.3-66.92-2-68.46-1.14-.49.33-8.14.81-17.1,1.06s-16.77.73-17.42,1-3.91.49-7.25.73-6.51.73-7,1.14-1.22.57-1.47.33c-.65-.73-16.85,1.38-16.85,2.2,0,.33-.73.49-1.63.33s-1.79,0-2,.49-1.95.73-3.66.73-3.42.33-3.66.81a3.66,3.66,0,0,1-2.52.81,58.64,58.64,0,0,0-8.3,1.55c-3.5.9-7.16,1.79-8.3,2s-2.93.65-4.07.9a23.61,23.61,0,0,1-3.66.73,5.62,5.62,0,0,0-1.63.41c0,.16-.9.41-2,.57-8.38,1.55-29.79,9.69-41.76,16-12.94,6.76-27.76,18.4-34,26.7-3.66,5-8.06,13.76-8.06,16.28,0,3.17,2.44,1.63,4.8-3.09C350.82,521.11,359,511,361.08,511c2.52,0,1.06,3.74-3.42,8.55-2.85,3-8.63,16.2-10.42,23.61a69.46,69.46,0,0,0-1.87,16.93c-.08,8.06-.24,9.52-1.3,9.36-2.36-.49-5.78-8.63-7.9-18.8-1.87-9.12-1.95-11-1.47-22.47.41-10,.9-13.59,2.36-17.58,3.42-9.36,12.21-19.62,27.35-31.75A123.86,123.86,0,0,1,394,460.63c15.87-6.92,59.51-18.48,78.72-20.84,18.15-2.28,29.22-3.74,37-4.88,4.48-.65,11-1.47,14.49-1.71s6.27-.9,6.27-1.22,1-.81,2.28-.81l2.2-.08-2.44-.65c-4.15-1.06-22.31-.81-32.56.41-5.37.65-13.59,1.63-18.32,2.12s-14.57,1.95-22,3.26-16.69,2.85-20.76,3.58a48.61,48.61,0,0,0-8.71,2,6.29,6.29,0,0,1-2.85.81c-7.65,0-54,18.23-54,21.25,0,.49-.33.57-.81.33s-.81-.08-.81.41-.41.65-.81.41-1.06.08-1.3.73-.81,1.06-1.22.81-1,.16-1.22.81-.81,1.06-1.22.81-.73-.08-.73.33-1.95,2.12-4.23,3.66c-11.07,7.73-15.47,11.07-17.83,13.84-1.38,1.63-2.85,3-3.26,3a9.22,9.22,0,0,0-2.85,2c-3.5,3.26-4.8,1.79-5.94-6.68-1.87-13.43-2.44-17.75-3.74-25.89a177.63,177.63,0,0,1-1.22-20.6V425.47l8.38-8.63c12.62-13,24.26-22.06,45.42-35.33a203.74,203.74,0,0,1,21.08-11.23c8.14-3.34,19.54-8.3,21.57-9.36a11.06,11.06,0,0,1,3.66-1.3c.65-.08,4.31-1.14,8.14-2.44s8.06-2.44,9.52-2.44,2.69-.33,2.85-.65c.33-.81,16.2-4.48,19.21-4.4a8.35,8.35,0,0,0,3-.49,7,7,0,0,1,2.44-.65c.9-.08,5.45-1,10.18-1.87,25.32-5,59.59-6.84,91.58-5,9.44.57,19.46,1.14,22.39,1.22,11.64.49,53.08,8.38,62.28,11.8,5.29,2,7.81,2.77,19.37,5.78,6.51,1.71,7.65,1.71,6.84-.33-.57-1.55-17.42-8.63-22.06-9.2-2-.33-3.74-.81-3.74-1.22s-.57-.49-1.22-.24-1.22.08-1.22-.41-.57-.65-1.3-.33a1.83,1.83,0,0,1-1.87-.24c-.24-.49-3.42-1.47-7-2.28s-9.69-2.36-13.59-3.42a56.86,56.86,0,0,0-9.52-1.95c-2.77,0-9.28-1.22-15.14-2.85-24.75-6.92-106.8-6.59-137.17.49-9.28,2.2-12.54,2.85-18.4,3.91a82.71,82.71,0,0,0-10.18,2.6c-2.85.9-8.06,2.36-11.48,3.17a45.86,45.86,0,0,0-7.16,2,9.83,9.83,0,0,1-2.2.81c-.81.16-4.88,1.79-9,3.58a68.5,68.5,0,0,1-8.38,3.34c-1.87,0-16.36,7.16-24.91,12.37-5,3-9.44,5.54-9.93,5.54a.84.84,0,0,0-.9.73c0,.41-1.06,1.14-2.36,1.71a16.76,16.76,0,0,0-3.91,2.28c-.81.73-3.34,2.69-5.54,4.23s-4.8,3.42-5.7,4.15-3.58,3-6,5-5.37,4.4-6.68,5.45c-2.77,2.28-4.8,1.79-4.8-1.3,0-3.58,6.19-23,9.61-30,3.91-8,7.25-16.36,7.9-19.54.24-1.38,1-4.8,1.63-7.73a110.4,110.4,0,0,0,2-12.37,101.9,101.9,0,0,1,10-33.62c3.66-7.33,12.46-20.27,16-23.44,2.85-2.52,13.43-7.33,18.15-8.22a9.53,9.53,0,0,0,2.12-.57,2.44,2.44,0,0,1,.81-.24c.33-.08,1.3-.41,2.2-.73a82.57,82.57,0,0,1,8.14-1.79l4.07-.73c24.5-4.72,41.6-5.45,73.67-3.09,6.51.49,17.34,1.14,24,1.38s18.07.81,25.24,1.06,14.82.41,17.1.16l4.07-.49-5.7-.65c-16.61-1.79-55-8-59.43-9.52-3.91-1.38-16.61-3.17-22.39-3.17-3,0-5.78-.41-6.27-.9-1.3-1.3-33.05-1.95-40.95-.9-3.34.49-9.12,1.3-12.78,1.87-11.07,1.71-10.75,1.22,7.49-11,17.58-11.8,42.25-23.77,61.05-29.55,27.68-8.55,34.76-9.85,68-12.94C586.37,187.88,606.64,187.31,629.84,189Zm242.1,302.75c3,2.2,11.32,14.73,13.43,20.35a48.06,48.06,0,0,1,2.2,9.52A32.56,32.56,0,0,0,891.15,533c4.56,9.36,6,15.3,5.94,25.24a84.7,84.7,0,0,1-1.3,14.65c-1.38,6.27-6,16.44-8.79,19.46a6.26,6.26,0,0,0-1.55,2.36c0,1.47-30.2,30.93-33.7,32.89-2.36,1.3-1.47-1.47,1.87-5.62,1.71-2.12,6.68-7.9,11-12.78A155.84,155.84,0,0,0,874.7,597a35.55,35.55,0,0,1,2.69-3.74c.24-.24,2-3,3.83-6.11,3.42-5.86,6.35-14.41,5.45-15.87s-2.44-.9-3.83,1.38a26,26,0,0,1-2.85,3.91c-.81.9-2.52,3-3.83,4.72-2.85,3.91-4.48,3-2.44-1.38.81-1.63,1.71-2.93,2.12-2.93s.65-.41.65-.9a25.7,25.7,0,0,1,2.12-5,45.73,45.73,0,0,0,4.4-17.91c0-3.26-.24-3.83-1.55-3.83-1.14,0-2.2,1.55-4.15,6.27a95.84,95.84,0,0,1-5.13,10.42c-2.85,4.48-10.09,12.62-11.32,12.62-.81,0,2.12-5.29,4.07-7.25,4.64-4.8,10.91-25,9.44-30.69-.9-3.66-2.52-2-5.62,5.94a94,94,0,0,1-6.27,13.35c-3.34,5.78-12.29,15-13.68,14.16-.41-.24,1-2.77,3.17-5.54,4-5,8.47-13.27,11.48-21,6.68-16.93,8.3-42.58,3.26-52.18-1.71-3.34-2.12-5.94-.81-5.13.49.24.81.16.81-.33C866.73,488.83,868.93,489.65,871.94,491.77Zm41.68,70.57c16.77,9.2,29.79,21.41,38.1,35.74,6.84,11.89,13.51,28.25,13.51,33.38a9.54,9.54,0,0,0,.81,4,17.36,17.36,0,0,1,1.14,3.83c.73,4.07,5.21,27.43,6.11,31.67a164.67,164.67,0,0,0,4.56,18.23c1.3,3.83,1.63,6.59.65,6.59s-3.91-9.61-7.16-23.2c-6.43-26.86-8-32.89-10.18-40.7-9-32.16-24.83-53.32-48.44-65.12-5.54-2.77-6.51-3.58-6.76-5.54-.16-1.22.16-2.2.65-2.2S910.28,560.55,913.62,562.34ZM918,580c11.56,9.44,22.79,26.13,28.74,43,4.07,11.48,8.87,32,9.85,42.25.24,2.2.81,6.11,1.22,8.55s1.06,6.11,1.22,8.14c.41,4.23,3.91,24.58,5.7,33,.65,3.09,1,5.94.81,6.19a1,1,0,0,0,.41,1.14c.49.24,1.06,2.2,1.38,4.31a32.59,32.59,0,0,0,1.14,5.62,11.89,11.89,0,0,0,.41,1.47,9.77,9.77,0,0,0,.33,1.22,6.61,6.61,0,0,1,.41,2c.49,3.34,3,11.64,5.45,17.91,5.13,13.11,6.43,16.77,6.43,17.75-.08,2-7-6.68-10-12.54-3.83-7.57-9.61-23.61-12-33.13-1.71-6.76-4.4-2.93-3.34,4.8a149.64,149.64,0,0,0,6.76,26c12.21,31.59,29.79,51.37,58.45,65.94,2,1,4.31,2.12,5.05,2.52a7,7,0,0,0,2.6.73,3.61,3.61,0,0,1,2.12,1.22c.9,1.06.57,1.22-2,1.22-2.93,0-20.92-6.11-26.7-9s-6.51-1.06-1.55,3.83c8.38,8.38,33,19,44,19s16.69,2.52,8.22,3.66c-11.72,1.63-39.64-2.28-49.58-6.92-6.19-2.93-8.22-3.09-8.22-.81,0,2.52,2.85,4.88,10.42,8.79,3.66,1.95,6.68,3.83,6.68,4.23,0,1.71-13.51-2.69-18.07-5.78a8,8,0,0,0-2.69-1.55c-1.47,0-13-10.83-17.83-16.69-1.79-2.2-3.58-4.23-3.83-4.48s-2.44-3.5-5-7.33c-7.25-11-16.77-30.85-22.06-46-5.13-14.82-10.34-33.78-11.56-42.74-.65-4.15-2.93-10.58-3.83-10.58-.41,0-.65,3.34-.65,7.33,0,7.81,3.09,25.4,7.08,39.89,3.74,13.92,3.42,15.39-1.55,7.33-2.77-4.48-5.54-6.35-5.54-3.83,0,1.38,2.36,8.47,3.83,11.07a10.44,10.44,0,0,1,1.06,3.26c0,1.47,8.87,22.06,10.18,23.69a73.62,73.62,0,0,1,4.48,7.73,63.82,63.82,0,0,0,4.72,8c.65.73,1.06,1.63.81,1.79-1.63,1.71-17.5-21.49-23.44-34.27-4.48-9.52-9.77-22.31-9.28-22.31.24,0-.16-.57-.81-1.3a4.88,4.88,0,0,1-1.3-3.17c0-1.06-.33-2.2-.81-2.44a2.9,2.9,0,0,1-.81-2.2,14,14,0,0,0-1.06-4.15,59.56,59.56,0,0,1-3.42-10.75c-.24-1.38-1.3-5.21-2.36-8.55-3.91-12.13-6-6.35-3.34,9,1.47,8.3,1.47,9.2.33,8.79-2.52-.81-8.71-26.46-9.2-37.69a8.74,8.74,0,0,0-.57-3.26,16.87,16.87,0,0,1-.65-3.66c-.16-3.34-2.44-16.44-5.94-34.6-1.3-7.16-2.6-13.92-2.85-15.06a6.84,6.84,0,0,0-1.14-2.93,1.27,1.27,0,0,1-.33-1.3c1.14-1.06-5.29-15.87-11.32-26.29-3-5.21-3.17-5.7-2-7.65,2.2-3.91,4.31-3.17,7.73,2.52,7.25,11.89,8.71,16.12,15.79,47.46,1.87,8.06,3.5,14.73,3.66,14.9,2,2,2-8.87.08-23.77-.65-5-2.36-13.92-3.74-19.94C892.37,628,892.53,629,893.59,629c2.12,0,5.45,8.06,7.81,18.72,1.38,6.27,4.72,27.35,6,38.26,1.79,15,6.19,38.1,8.3,43.31.81,2.28,3.09,3.17,3.09,1.22,0-.49-.49-3.91-1.06-7.49a53.07,53.07,0,0,1-.9-9.2c.08-1.38-.16-2.85-.57-3.09s-.73-3.09-.73-6.43-.41-6.27-.9-6.51-.81-2.44-.73-4.8a47.4,47.4,0,0,0,0-5c-.08-.49-.08-1.95-.08-3.26.16-2.93-2-21.49-3.66-32.07-1.95-12.37-5.94-25.81-10.09-33.86-2.93-5.78-1.63-8.14,2.2-3.91,4.88,5.54,10.58,20.27,14.9,38.91,1.14,5,1.47,5.29,2.93,3.26,1.38-1.87,1.06-7.08-1.06-17.91-.73-3.58-1.38-7.08-1.38-7.73a5.56,5.56,0,0,0-.81-2.28,2,2,0,0,1-.08-1.79c.24-.49.08-.81-.33-.81s-.9-.9-.9-2c0-2-5.54-14.41-6.68-14.9a1.51,1.51,0,0,1-.65-1.38,3.72,3.72,0,0,0-1.06-2.2c-3.09-3.26-10.34-13.35-10.34-14.49a3.61,3.61,0,0,1,1-2.28,13.91,13.91,0,0,0,2-4.48c1.47-5,3.58-10.58,4.56-11.72S912.24,575.37,918,580ZM363.65,674.76c3.26,8.22,6.76,14.49,9.77,17.5,5.21,5.21,4.48,6.27-4.48,6.59-4.72.08-8.06-.16-9.36-.9-3-1.55-4.23-6.19-3.91-15.3.24-8.63,1.14-10.5,4.72-10.5C362.18,672.16,362.83,672.73,363.65,674.76Zm17.09,31.92a1.61,1.61,0,0,0,1.06,1.47c.65.24,1.06,3.17,1.22,9.77.33,9.36.33,9.36-1.95,11.15-1.95,1.47-3.17,1.71-11.07,1.71-4.88,0-9.61-.41-10.42-.81-2.12-1.14-3.26-5.7-3.26-13.27,0-6.92.81-9.2,3.5-10.34,1-.41,6.11-.73,11.4-.73C379,705.54,380.74,705.78,380.74,706.68ZM996.49,761.3a142.46,142.46,0,0,0,8.87,11.15c6.51,7.49,4.64,7-2.69-.65-8.87-9.36-18.07-24.58-21.82-36.23-2-5.78-.81-4.15,5.37,7.81A183,183,0,0,0,996.49,761.3Zm-616-20.84c3.09,2.6,4.56,12.94,2.52,18.48-1.38,4-4.31,5.21-12,5.21-7.33,0-11.64-1.47-13.19-4.4-1.22-2.2-.9-16.69.41-18.23,1.63-2,4.07-2.52,12.37-2.52C377.32,739,379,739.24,380.5,740.46Zm-.33,33c2.85,1.38,4.07,5.78,3.5,12.94-.81,10.58-3.26,12.46-15.55,11.8-6.92-.41-9.77-1.55-10.5-4.31a72.6,72.6,0,0,1-.49-9.93c0-8,.08-8.3,2.28-10.18s2.69-1.87,10.75-1.38A61.86,61.86,0,0,1,380.17,773.43Zm-17,34.84a30.52,30.52,0,0,1-2.44,4.88,14.7,14.7,0,0,0-2,3.91.73.73,0,0,1-.65.81c-.65,0-2.36,3.5-3.42,7.25-.41,1.63-.41,2.52.08,2.52,1,0,5.62-5,5.62-5.94,0-.33.41-.41.81-.16s.81,2,.81,3.74c0,2.28.33,3.17,1.22,3.17,1.38,0,2.85-3.09,2.85-6,0-2.28,3.09-6.43,4.23-5.7.57.41.65,3.09.33,8C369,848.48,369,848,370.32,848c1.47,0,5.54-12,5.54-16.36,0-4.64,1-11.32,1.63-10.91.33.16,1.55,3.09,2.77,6.43,1.63,4.4,2.6,5.94,3.42,5.62,1.3-.49,1.55-4.56.33-6.76a11.62,11.62,0,0,1-1.14-3.83c-.24-2.28-.49-3-2.85-8.79a18,18,0,0,1-1.3-4.64c0-3.26,1.87-1.3,5.54,5.94,5.45,10.83,8,26.13,6.27,37.77-2.12,14-2.6,19.86-2.69,28.49-.08,11.32,1,16.36,4.23,21.65,1.38,2.28,2.36,4.4,2.12,4.64s-2.12-1.3-4.15-3.5c-3.83-4-7.65-11.15-8.06-15a13.18,13.18,0,0,0-.81-3.5c-.33-.81-.65-9.36-.65-19.13-.16-15.14-.33-17.75-1.38-17.75-1.63,0-3.91,8.3-4,14.41-.08,2.52-.49,4.88-.9,5.13-1.22.73-1,18,.33,23.2,1.95,7.41,6,17.1,7.9,18.72.65.57,2,3.09,6.59,12.29,4,8.06,6.35,15.71,6.35,20.6,0,1.63.41,2.93.81,2.93s.81.9.81,2c0,3.34-2.28,3.17-5.94-.33-1.79-1.79-4-3.26-4.72-3.26-2,0-4-3.17-4-6.51a34.25,34.25,0,0,0-.9-6.51,49.54,49.54,0,0,1-1.14-4.88c-.24-1.47-.81-2.93-5.78-14.49a175.32,175.32,0,0,1-8.47-24.42c-1-3.74-2.77-4.56-3.74-1.63-1.87,5.86.16,17.26,5.37,29.39,6.92,16.36,8.06,23.85,3.09,19.94-1.06-.9-7.16-12-14.73-26.86-1.87-3.74-5.13-16.77-5.86-23.53-.49-4.56.16-11.8,1.79-20.92.33-2.2.16-2.6-1.22-2.6-4.07,0-8.06,9.61-8.87,21.41-.24,3.91-.81,7.33-1.14,7.57-1.47.9-2.77-6.92-2.69-16.36.08-10.91,1.71-19.46,6.51-34.19,4.48-13.76,14.73-33,17.66-33C363.4,806.48,363.65,806.89,363.16,808.27Z"
          transform="translate(-315.26 -176.16)"/>
    <image width="740" height="770" transform="translate(5.25 7.31)" xlink:href="skully-inside-pattern-2.png"/>
</svg>
